PathFileType	4	(X/Y/Z)	TVC_9_BWA3_walk_RCNL2025.trc
DataRate	CameraRate	NumFrames	NumMarkers	Units	OrigDataRate	OrigDataStartFrame	OrigNumFrames
100	100	11	27	mm	100	329	438
Frame#	Time	R_Shoulder			L_Shoulder			C7			J_Notch			R_Elbow			L_Elbow			R_Wrist			L_Wrist			R_Asis			L_Asis			R_Psis			L_Psis			Sacral			Thoracic			Sternum			R_Thigh_Lateral			R_Knee_Lateral			R_Shank_Lateral			R_Ankle_Lateral			R_Heel			R_Toe			L_Thigh_Lateral			L_Knee_Lateral			L_Shank_Lateral			L_Ankle_Lateral			L_Heel			L_Toe		
		X1	Y1	Z1	X2	Y2	Z2	X3	Y3	Z3	X4	Y4	Z4	X5	Y5	Z5	X6	Y6	Z6	X7	Y7	Z7	X8	Y8	Z8	X9	Y9	Z9	X10	Y10	Z10	X11	Y11	Z11	X12	Y12	Z12	X13	Y13	Z13	X14	Y14	Z14	X15	Y15	Z15	X16	Y16	Z16	X17	Y17	Z17	X18	Y18	Z18	X19	Y19	Z19	X20	Y20	Z20	X21	Y21	Z21	X22	Y22	Z22	X23	Y23	Z23	X24	Y24	Z24	X25	Y25	Z25	X26	Y26	Z26	X27	Y27	Z27
329	3.28000000	1203.247803	1360.371094	-35.278755	1161.088379	1359.928101	-424.094177	1130.076782	1428.609009	-234.610611	1282.251221	1326.994629	-228.460541	1186.659302	1058.222046	112.335884	1100.761353	1026.586670	-494.004456	1340.660156	859.879517	102.490662	1162.396057	789.863586	-508.227951	1215.206787	915.056946	-60.370186	1205.083130	919.393127	-365.210419	1018.125305	946.311401	-155.188248	1016.620911	945.752136	-256.165649	1017.373108	946.031769	-205.676949	1030.208252	1155.743286	-213.934586	1338.548218	1137.126343	-227.332993	1154.706177	512.109985	14.087852	1131.426270	439.625458	-52.122669	1028.448730	325.436249	-4.923504	846.731018	190.883728	-78.015717	800.400818	227.961395	-136.005997	903.996399	74.650940	-125.262558	1250.942383	561.792969	-397.010010	1259.945312	435.783875	-335.761841	1247.703857	289.625244	-375.258636	1216.201416	71.401283	-294.762207	1163.181641	48.099777	-235.417801	1353.822266	39.381306	-272.724121
330	3.29000000	1212.325562	1361.537109	-36.053123	1171.011963	1360.860840	-425.019318	1139.570435	1429.898438	-235.588135	1291.510498	1327.865845	-229.223816	1190.380737	1057.905518	109.313232	1115.691162	1027.026978	-496.784943	1337.067322	854.040894	100.404610	1181.611511	791.725769	-512.753891	1223.361328	915.903259	-61.639221	1212.573853	920.696960	-366.496582	1026.190918	947.681763	-155.871826	1024.329834	947.556702	-256.808044	1025.260376	947.619232	-206.339935	1038.905762	1157.293823	-214.897659	1347.222900	1137.888306	-228.040344	1174.584106	512.411011	13.170922	1152.144165	440.263794	-53.232738	1048.669922	327.199188	-5.805821	863.418762	197.349304	-77.482704	817.031372	234.781601	-135.422333	918.628296	79.963257	-124.397049	1256.913208	562.640076	-397.151245	1261.887573	435.750946	-335.652710	1248.769409	289.571869	-375.104706	1216.264404	71.414581	-294.651184	1163.173584	48.128151	-235.244781	1353.807007	39.451027	-272.683441
331	3.30000000	1221.165527	1362.674561	-36.721882	1180.772583	1361.794800	-425.846527	1148.930298	1431.141968	-236.488159	1300.646729	1328.702881	-229.891312	1193.772949	1057.622070	106.234970	1130.608643	1027.554810	-499.567596	1333.024536	848.570526	98.263010	1201.051086	793.853394	-517.276047	1231.432983	916.722046	-62.826725	1219.999512	921.934509	-367.718048	1034.182617	949.016724	-156.485535	1031.973755	949.260437	-257.342804	1033.078186	949.138580	-206.914169	1047.500244	1158.793823	-215.815918	1355.785400	1138.597778	-228.619110	1193.392822	513.205200	11.965662	1172.873535	441.272705	-54.524178	1069.155396	329.057831	-6.802834	881.117188	202.919022	-77.062294	834.483093	240.283829	-135.006073	935.473328	85.139114	-123.445312	1262.848877	563.357178	-397.270813	1263.795776	435.723236	-335.556183	1249.831665	289.524323	-375.005646	1216.327393	71.427338	-294.561371	1163.184937	48.193127	-235.088943	1353.804688	39.483986	-272.661285
332	3.31000000	1229.775391	1363.769897	-37.289928	1190.368652	1362.714722	-426.579865	1158.156616	1432.326172	-237.313110	1309.661377	1329.494629	-230.465652	1196.851562	1057.375366	103.104004	1145.497803	1028.166626	-502.351685	1328.590210	843.480652	96.071411	1220.680359	796.249054	-521.789459	1239.433472	917.506226	-63.930496	1227.388184	923.094055	-368.863831	1042.112671	950.297974	-157.030273	1039.572510	950.851501	-257.785614	1040.842590	950.574738	-207.407944	1055.996094	1160.228027	-216.687744	1364.246460	1139.248413	-229.074905	1211.224731	514.399170	10.514999	1193.513672	442.648743	-55.978466	1089.792480	331.019135	-7.878386	899.761108	207.447433	-76.755058	852.705872	244.342377	-134.755295	954.440796	89.956741	-122.400398	1268.408936	563.905518	-397.363312	1265.686035	435.692108	-335.461975	1250.908203	289.474915	-374.938690	1216.399536	71.443085	-294.487762	1163.217896	48.294819	-234.951080	1353.818970	39.483601	-272.641663
333	3.32000000	1238.165283	1364.811401	-37.763206	1199.801514	1363.606689	-427.224457	1167.250610	1433.438965	-238.066376	1318.556763	1330.231567	-230.950439	1199.635620	1057.170532	99.925751	1160.345459	1028.859131	-505.136169	1323.826660	838.781006	93.833809	1240.463501	798.913361	-526.289764	1247.374512	918.249390	-64.949036	1234.766846	924.166260	-369.924133	1049.992798	951.508179	-157.508301	1047.143921	952.322510	-258.154236	1048.568359	951.915344	-207.831268	1064.398560	1161.582397	-217.511887	1372.616089	1139.835815	-229.416245	1228.341675	515.893860	8.882259	1213.979614	444.371460	-57.574284	1110.494873	333.067749	-8.999761	919.285339	210.824738	-76.555870	871.657104	246.876541	-134.660782	975.374817	94.216774	-121.264252	1273.373047	564.284119	-397.428864	1267.577271	435.652222	-335.358154	1252.020752	289.419189	-374.882050	1216.487061	71.464973	-294.425323	1163.270752	48.429054	-234.831116	1353.851196	39.455322	-272.610474
334	3.33000000	1246.347778	1365.790527	-38.148331	1209.075317	1364.457031	-427.785980	1176.214844	1434.469849	-238.751923	1327.336182	1330.905151	-231.349991	1202.147827	1057.014771	96.708221	1175.141113	1029.629272	-507.919525	1318.799133	834.478882	91.552288	1260.363342	801.844696	-530.773224	1255.267212	918.945801	-65.881721	1242.160034	925.144409	-370.890686	1057.834106	952.631470	-157.923004	1054.702759	953.669556	-258.466003	1056.268433	953.150513	-208.194504	1072.713379	1162.844604	-218.287430	1380.902710	1140.356689	-229.653915	1245.072754	517.609680	7.135623	1234.201050	446.405792	-59.288185	1131.201538	335.166931	-10.140077	939.628235	212.980896	-76.454788	891.301270	247.850296	-134.707382	998.076355	97.760872	-120.051704	1277.671265	564.515076	-397.466736	1269.489136	435.600647	-335.233582	1253.190552	289.355682	-374.817810	1216.593018	71.495430	-294.369507	1163.339355	48.588989	-234.728546	1353.900146	39.405239	-272.557434
335	3.34000000	1254.337646	1366.700806	-38.452301	1218.196533	1365.253662	-428.270294	1185.052856	1435.409546	-239.373886	1336.003784	1331.508423	-231.669159	1204.414062	1056.916504	93.461998	1189.876709	1030.473877	-510.699554	1313.575195	830.579102	89.226786	1280.341980	805.039368	-535.236450	1263.122192	919.589905	-66.729057	1249.588623	926.023743	-371.757721	1065.646851	953.653503	-158.278671	1062.261597	954.891602	-258.735962	1063.954224	954.272552	-208.507317	1080.946899	1164.003662	-219.013626	1389.114258	1140.808960	-229.800049	1261.717407	519.496887	5.335743	1254.119751	448.704987	-61.095135	1151.871948	337.262665	-11.279402	960.733948	213.886795	-76.438812	911.609436	247.269608	-134.875870	1022.325623	100.483986	-118.792450	1281.379272	564.630310	-397.471680	1271.440552	435.536285	-335.080017	1254.434814	289.285583	-374.733673	1216.717773	71.536026	-294.316620	1163.418457	48.767109	-234.643204	1353.963745	39.339195	-272.476898
336	3.35000000	1262.151367	1367.538208	-38.682171	1227.173462	1365.985840	-428.683044	1193.768677	1436.250488	-239.936279	1344.564453	1332.035522	-231.913177	1206.463745	1056.884521	90.200127	1204.546265	1031.390137	-513.473206	1308.223328	827.083954	86.854984	1300.360901	808.491577	-539.676239	1270.949219	920.175964	-67.492966	1257.068481	926.801514	-372.522186	1073.440552	954.562134	-158.580261	1069.829956	955.988770	-258.975800	1071.635254	955.275452	-208.778030	1089.105957	1165.050659	-219.689804	1397.257202	1141.191650	-229.867218	1278.478394	521.533203	3.527359	1273.687622	451.213837	-62.968941	1172.480713	339.290710	-12.404385	982.553650	213.552231	-76.494087	932.557678	245.178040	-135.145416	1047.901001	102.339134	-117.529579	1284.680542	564.661865	-397.434021	1273.446411	435.459503	-334.893555	1255.763306	289.212036	-374.623718	1216.860229	71.587448	-294.263855	1163.502930	48.956688	-234.575623	1354.038696	39.262447	-272.368225
337	3.36000000	1269.806763	1368.300171	-38.844849	1236.015625	1366.644165	-429.029663	1202.367798	1436.986572	-240.442657	1353.023926	1332.481812	-232.087418	1208.329224	1056.927979	86.937973	1219.144897	1032.375366	-516.236633	1302.812500	823.992981	84.432501	1320.381653	812.193420	-544.089355	1278.757446	920.698181	-68.177025	1264.610596	927.476562	-373.184357	1081.223145	955.347168	-158.832993	1077.415161	956.961548	-259.193634	1079.319153	956.154358	-209.013313	1097.197388	1165.977783	-220.315231	1405.337646	1141.504028	-229.867599	1295.429199	523.708679	1.735768	1292.863647	453.871857	-64.882652	1193.013428	341.184204	-13.506755	1005.045166	212.020950	-76.608284	954.126465	241.651184	-135.496216	1074.593262	103.334976	-116.315132	1287.810059	564.634888	-397.342651	1275.516235	435.371948	-334.675354	1257.177734	289.139343	-374.487854	1217.018066	71.649574	-294.209442	1163.588501	49.152576	-234.526764	1354.121704	39.179626	-272.235413
338	3.37000000	1277.322876	1368.986084	-38.946911	1244.733154	1367.221069	-429.314819	1210.855835	1437.613037	-240.895844	1361.388672	1332.843872	-232.197281	1210.045288	1057.055054	83.692894	1233.669189	1033.427490	-518.984802	1297.410767	821.302673	81.953232	1340.365906	816.135193	-548.472229	1286.554688	921.150574	-68.786598	1272.219604	928.049255	-373.747864	1089.001831	956.000977	-159.042084	1085.021606	957.810730	-259.394653	1087.011719	956.905853	-209.218369	1105.228638	1166.779663	-220.889008	1413.361084	1141.746338	-229.812164	1312.515747	526.008911	-0.030463	1311.612671	456.616241	-66.808838	1213.461426	342.879517	-14.581356	1028.171387	209.364151	-76.772690	976.299866	236.790756	-135.911942	1102.212646	103.527565	-115.203880	1290.995850	564.563049	-397.189575	1277.652344	435.275665	-334.431030	1258.671021	289.071503	-374.330780	1217.187988	71.721619	-294.152557	1163.672485	49.351410	-234.497574	1354.209106	39.094776	-272.086121
339	3.38000000	1284.719604	1369.596191	-38.994461	1253.336792	1367.710693	-429.542603	1219.239502	1438.126709	-241.297836	1369.665771	1333.119751	-232.248032	1211.649414	1057.273315	80.483948	1248.115967	1034.544067	-521.711975	1292.084351	819.006195	79.409988	1360.276062	820.305389	-552.820618	1294.348511	921.527344	-69.328812	1279.894531	928.521423	-374.219543	1096.782471	956.518066	-159.212433	1092.651367	958.537842	-259.581573	1094.716919	957.527954	-209.397003	1113.207275	1167.452271	-221.409882	1421.332886	1141.919312	-229.710236	1329.589722	528.405945	-1.770753	1329.903809	459.384430	-68.719765	1233.818604	344.318634	-15.625119	1051.898438	205.673462	-76.983665	999.065247	230.718552	-136.381577	1130.591309	103.008179	-114.246803	1294.410645	564.448242	-396.974152	1279.849487	435.172119	-334.169373	1260.229248	289.010895	-374.160156	1217.366699	71.802155	-294.093750	1163.753052	49.551464	-234.488556	1354.297852	39.011295	-271.929565
